<?xml version="1.0" encoding="UTF-8" standalone="no"?>
<svg
   xmlns:dc="http://purl.org/dc/elements/1.1/"
   xmlns:cc="http://creativecommons.org/ns#"
   xmlns:rdf="http://www.w3.org/1999/02/22-rdf-syntax-ns#"
   xmlns:svg="http://www.w3.org/2000/svg"
   xmlns="http://www.w3.org/2000/svg"
   id="svg8"
   version="1.1"
   viewBox="0 0 171.97916 26.458328"
   height="99.999977"
   width="650">
  <defs
     id="defs2">
    <clipPath
       id="clipPath4489"
       clipPathUnits="userSpaceOnUse">
      <rect
         ry="2.4230156"
         y="-8.5713873"
         x="447.14285"
         height="122.85714"
         width="656.42859"
         id="rect4491"
         style="opacity:1;fill:#ad6868;fill-opacity:0.4017857;stroke:none;stroke-width:1.56555295;stroke-miterlimit:4;stroke-dasharray:none;stroke-opacity:1" />
    </clipPath>
    <clipPath
       id="clipPath4499"
       clipPathUnits="userSpaceOnUse">
      <rect
         ry="0"
         y="2.4544783e-005"
         x="447.14285"
         height="100"
         width="650"
         id="rect4501"
         style="opacity:1;fill:#ad6868;fill-opacity:0.4017857;stroke:none;stroke-width:1.89841735;stroke-miterlimit:4;stroke-dasharray:none;stroke-opacity:1" />
    </clipPath>
  </defs>
  <metadata
     id="metadata5">
    <rdf:RDF>
      <cc:Work
         rdf:about="">
        <dc:format>image/svg+xml</dc:format>
        <dc:type
           rdf:resource="http://purl.org/dc/dcmitype/StillImage" />
        <dc:title></dc:title>
      </cc:Work>
    </rdf:RDF>
  </metadata>
  <g
     transform="translate(-118.30654,-270.54166)"
     id="layer1">
    <path
       clip-path="url(#clipPath4499)"
       transform="matrix(0.26458333,0,0,0.26458333,0,270.54165)"
       id="rect4485"
       d="M 0.17578125,0 C 0.0782267,0 0,0.0782267 0,0.17578125 V 99.824219 C 0,99.921773 0.0782267,100 0.17578125,100 H 462.46484 V 25.732422 c 0,-0.527647 0.26331,-0.791016 0.79297,-0.791016 h 8.86328 c 0.52967,0 0.79297,0.263369 0.79297,0.791016 v 5.052734 c 5.33738,-4.261795 11.42859,-6.250916 18.27344,-5.966797 6.92634,0.28412 12.91661,2.88175 17.96875,7.792969 5.05217,4.911194 7.80185,10.818693 8.25,17.71875 0.2852,3.896517 -0.24339,7.649347 -1.58789,11.261719 -1.30381,3.490595 -3.23984,6.59696 -5.80664,9.316406 -5.41884,5.722961 -12.0802,8.583985 -19.98438,8.583985 -6.39667,0 -12.10185,-2.009102 -17.11328,-6.027344 V 100 H 1919.8242 c 0.098,0 0.1758,-0.07823 0.1758,-0.175781 V 0.17578125 C 1920,0.0782267 1919.9218,0 1919.8242,0 H 773.59961 v 41.744141 l 17.78516,-16.863282 c 0.12225,-0.162519 0.30441,-0.24414 0.54882,-0.24414 h 12.83399 c 0.36671,0 0.61217,0.161641 0.73437,0.486328 0.16303,0.36543 0.10164,0.670661 -0.18359,0.914062 l -21.51172,20.457032 26.33984,31.597656 c 0.20359,0.28412 0.22332,0.567443 0.0606,0.851562 -0.12223,0.324712 -0.34593,0.488282 -0.67187,0.488282 h -11.55078 c -0.28521,0 -0.48913,-0.101853 -0.61133,-0.304688 l -21.14649,-25.388672 -2.62695,2.496094 v 22.40625 c 0,0.527647 -0.26526,0.791016 -0.79492,0.791016 h -8.86133 c -0.52966,0 -0.79492,-0.263369 -0.79492,-0.791016 V 0 Z M 596.85547,12.337891 h 8.74023 c 0.52964,0 0.79297,0.263368 0.79297,0.791015 v 11.507813 h 8.37305 c 0.52966,0 0.79492,0.263368 0.79492,0.791015 v 8.646485 c 0,0.527672 -0.26526,0.791015 -0.79492,0.791015 h -8.37305 V 63.90625 c 0,2.557077 0.77402,4.220988 2.32227,4.992188 1.30378,0.649415 2.83202,0.425964 4.58398,-0.669922 0.40743,-0.243604 0.75386,-0.161731 1.03906,0.24414 l 5.19532,6.939453 c 0.36669,0.446463 0.3053,0.811592 -0.1836,1.095703 -2.89277,1.988813 -5.92749,2.984376 -9.10547,2.984376 -2.15939,0 -4.21817,-0.486828 -6.17382,-1.460938 -2.48535,-1.217638 -4.44118,-3.08506 -5.86719,-5.601562 -1.38527,-2.516486 -2.07813,-5.357529 -2.07813,-8.523438 V 34.865234 H 587.75 c -0.52966,0 -0.79492,-0.263343 -0.79492,-0.791015 v -8.646485 c 0,-0.527647 0.26526,-0.791015 0.79492,-0.791015 h 8.37109 l -0.0605,-11.507813 c 0,-0.527647 0.26526,-0.791015 0.79492,-0.791015 z m 311.07422,12.177734 h 8.86133 c 0.52966,0 0.79492,0.263368 0.79492,0.791016 v 4.078125 c 0.97784,-0.689991 1.89439,-1.256637 2.75,-1.703125 2.60754,-1.339541 5.39878,-2.131599 8.37304,-2.375 l 1.16016,-0.06055 h 0.24609 0.24415 0.12109 0.49023 c 0.0815,0 0.24387,0.01998 0.48828,0.06055 h 0.36719 0.30469 c 0.16302,0.04057 0.36692,0.06055 0.61133,0.06055 l 0.55078,0.06055 c 1.58896,0.243503 3.13703,0.628603 4.64453,1.15625 3.09649,1.177096 5.78478,2.922781 8.06641,5.236328 0.61115,0.608832 1.20305,1.279183 1.77343,2.009766 0.36669,-0.48708 0.75273,-0.95393 1.16016,-1.40039 1.75196,-1.948246 3.78898,-3.530384 6.11133,-4.748047 2.60757,-1.339541 5.39878,-2.131599 8.37305,-2.375 l 1.16015,-0.06055 h 0.24609 0.24415 0.12304 0.48828 c 0.0815,0 0.24388,0.01998 0.48829,0.06055 h 0.30664 0.36523 c 0.16305,0.04057 0.36692,0.06055 0.61133,0.06055 l 0.55078,0.06055 c 1.58899,0.243503 3.13703,0.628603 4.64453,1.15625 3.09647,1.177096 5.78478,2.922781 8.06641,5.236328 2.28162,2.354117 3.95239,5.073479 5.01172,8.158204 0.52976,1.501807 0.89603,3.044011 1.0996,4.626953 0.0816,0.771175 0.12305,1.563233 0.12305,2.375 v 1.765625 c 0,1.055294 0.02,2.212448 0.0605,3.470703 v 1.705078 1.642578 6.089844 c 0.0411,5.03297 0.0825,9.234673 0.12305,12.603515 v 4.322266 c 0,0.527673 -0.26526,0.791016 -0.79493,0.791016 h -8.73828 c -0.52964,0 -0.79492,-0.263343 -0.79492,-0.791016 v -4.322266 l 0.0606,-12.603515 c 0,-1.298822 0.02,-3.327853 0.0605,-6.087891 v -1.644531 -1.705078 c 0,-1.258255 0.0199,-2.415409 0.0606,-3.470703 v -1.765625 l -0.0606,-1.277344 c -0.0815,-0.852359 -0.2636,-1.704282 -0.54882,-2.556641 -0.57038,-1.704718 -1.48696,-3.207012 -2.75,-4.505859 -1.2223,-1.339389 -2.68918,-2.332998 -4.40039,-2.982422 -0.81487,-0.324787 -1.67204,-0.548221 -2.56836,-0.669922 l -0.30469,-0.0625 c -0.16302,0 -0.26412,-0.01998 -0.30469,-0.06055 h -0.12305 -0.12304 -0.36719 l -0.48828,-0.06055 h -0.0605 -0.18359 l -0.30469,0.06055 h -0.30664 c -3.30021,0.162344 -6.06966,1.441229 -8.31055,3.835938 -0.85561,0.892951 -1.56826,1.908443 -2.13867,3.044922 -0.44805,0.892976 -0.77467,1.804763 -0.97851,2.738281 -0.0816,0.446463 -0.14303,0.813537 -0.1836,1.097656 l -0.0605,0.181641 v 0.18164 L 952.36133,46.25 v 0.853516 l -0.12305,1.947265 c 0.0406,1.785903 0.0605,3.998458 0.0605,6.636719 v 1.582031 1.523438 c 0.0406,1.136478 0.0605,2.090153 0.0606,2.861328 0,5.032945 0.0219,9.232693 0.0625,12.601562 v 4.324219 c 0,0.527673 -0.26526,0.791016 -0.79493,0.791016 h -8.74023 c -0.52966,0 -0.79492,-0.263343 -0.79492,-0.791016 v -4.324219 c 0.0406,-3.368869 0.0625,-7.568617 0.0625,-12.601562 0.0406,-1.298822 0.0605,-3.327853 0.0605,-6.087891 v -1.644531 -1.705078 c 0.0406,-1.258255 0.0606,-2.415409 0.0606,-3.470703 v -1.765625 l -0.0606,-1.277344 c -0.0815,-0.852359 -0.26555,-1.706235 -0.55078,-2.558594 -0.5704,-1.704718 -1.48698,-3.205059 -2.75,-4.503906 -1.2223,-1.339389 -2.68917,-2.334951 -4.40039,-2.984375 -0.81484,-0.324787 -1.67003,-0.548221 -2.5664,-0.669922 l -0.30469,-0.06055 c -0.16328,0 -0.26608,-0.01998 -0.30664,-0.06055 h -0.12305 -0.12109 -0.36719 l -0.48828,-0.06055 h -0.0625 -0.18164 l -0.61133,0.06055 c -3.30021,0.162369 -6.07162,1.441229 -8.3125,3.835938 -0.85558,0.892951 -1.56827,1.908443 -2.13867,3.044922 -0.4483,0.892976 -0.77493,1.804763 -0.97852,2.738281 -0.0816,0.446463 -0.14302,0.811583 -0.18359,1.095703 l -0.0605,0.183594 V 45.945312 46.25 c -0.0406,0.36538 -0.0606,0.64873 -0.0606,0.851562 l -0.0605,0.732422 v 30.867188 c 0,0.527647 -0.26526,0.791016 -0.79492,0.791016 h -8.86133 c -0.52967,0 -0.79492,-0.263369 -0.79492,-0.791016 V 25.306641 c 0,-0.527648 0.26525,-0.791016 0.79492,-0.791016 z m -213.16797,0.06055 h 8.86133 c 0.52966,0 0.79492,0.263368 0.79492,0.791016 v 3.044921 c 3.62613,-2.272957 7.55762,-3.410156 11.79492,-3.410156 1.26304,0 2.48446,0.101853 3.66602,0.304688 0.52981,0.08118 0.75546,0.384462 0.67382,0.912109 l -1.77343,8.523438 c -0.12223,0.486998 -0.4271,0.690508 -0.91602,0.609374 -0.52966,-0.08113 -1.07998,-0.121093 -1.65039,-0.121093 -3.01498,0 -5.64388,1.013513 -7.88477,3.042969 -2.24079,1.988831 -3.54344,4.464786 -3.91015,7.427734 v 33 c 0,0.527647 -0.26526,0.791014 -0.79492,0.791016 h -8.86133 c -0.52966,0 -0.79492,-0.263369 -0.79492,-0.791016 V 25.367188 c 0,-0.527648 0.26526,-0.791016 0.79492,-0.791016 z m 125.16211,0 h 8.86133 c 0.52966,0 0.79492,0.263368 0.79492,0.791016 v 3.044921 c 3.62615,-2.272957 7.55764,-3.410156 11.79492,-3.410156 1.26304,0 2.48641,0.101853 3.66797,0.304688 0.52981,0.08118 0.75351,0.384462 0.67187,0.912109 l -1.77148,8.523438 c -0.12223,0.487 -0.42905,0.690508 -0.91797,0.609374 -0.52966,-0.08113 -1.07998,-0.121093 -1.65039,-0.121093 -3.01498,0 -5.64193,1.013513 -7.88281,3.042969 -2.24088,1.988833 -3.54542,4.464786 -3.91211,7.427734 v 33 c 0,0.527647 -0.26526,0.791014 -0.79492,0.791016 h -8.86133 c -0.52966,0 -0.79297,-0.263369 -0.79297,-0.791016 V 25.367188 c 0,-0.527648 0.26331,-0.791016 0.79297,-0.791016 z m 241.28127,0 h 8.8613 c 0.5297,0 0.7949,0.263368 0.7949,0.791016 v 3.044921 c 3.6262,-2.272957 7.5577,-3.410156 11.7949,-3.410156 1.2631,0 2.4865,0.101853 3.668,0.304688 0.5298,0.08118 0.7535,0.384462 0.6719,0.912109 l -1.7734,8.523438 c -0.1223,0.487004 -0.4271,0.690508 -0.9161,0.609374 -0.5296,-0.08113 -1.0799,-0.121093 -1.6504,-0.121093 -3.0149,0 -5.6419,1.013513 -7.8828,3.042969 -2.2408,1.988837 -3.5454,4.464786 -3.9121,7.427734 v 33 c 0,0.527647 -0.2652,0.791016 -0.7949,0.791016 h -8.8613 c -0.5297,0 -0.7949,-0.263369 -0.7949,-0.791016 V 25.367188 c 0,-0.527648 0.2652,-0.791016 0.7949,-0.791016 z m -38.2578,0.18164 c 6.4782,10e-7 11.4489,1.765663 14.9121,5.296876 2.4038,2.475891 4.0132,5.763829 4.8281,9.863281 0.5705,2.71942 0.8141,6.372477 0.7324,10.958984 0,0.649399 -0.02,1.31975 -0.061,2.009766 -0.041,1.420598 -0.061,2.476 -0.061,3.166015 0,3.531188 0.2436,7.772799 0.7324,12.72461 0.1631,1.826494 0.367,3.691956 0.6114,5.599609 0.1631,1.420599 0.3472,2.821166 0.5508,4.201172 0.081,0.608806 -0.1838,0.914062 -0.795,0.914063 h -8.8007 c -0.4481,0 -0.7133,-0.223459 -0.795,-0.669922 -0.2036,-1.501758 -0.3858,-3.024032 -0.5488,-4.566407 -4.1558,3.450029 -9.087,5.175782 -14.791,5.175782 -5.867,0 -10.4498,-1.502294 -13.75,-4.50586 -3.3002,-3.044132 -4.9492,-7.245833 -4.9492,-12.603515 0,-4.789443 1.7302,-8.705868 5.1933,-11.75 5.2559,-4.667692 14.2611,-6.594969 27.0137,-5.783204 -0.2852,-3.61237 -1.1206,-6.128229 -2.5059,-7.548828 -1.426,-1.501782 -3.9321,-2.253906 -7.5175,-2.253906 -2.6891,0 -5.1537,0.466847 -7.3946,1.400391 -0.8149,0.324686 -1.5889,0.709736 -2.3222,1.15625 -0.5297,0.324686 -0.9988,0.649897 -1.4063,0.974609 -0.3666,0.324712 -0.7131,0.324712 -1.039,0 l -6.4786,-5.90625 c -0.4074,-0.405871 -0.4074,-0.790921 0,-1.15625 0.2852,-0.284246 0.592,-0.547614 0.918,-0.791016 0.4074,-0.365277 0.8548,-0.710444 1.3438,-1.035156 1.1815,-0.811792 2.4643,-1.542008 3.8496,-2.191406 3.7891,-1.785902 7.966,-2.679688 12.5293,-2.679688 z m -144.65042,0.02734 c 5.24055,-0.01777 10.10572,1.393169 14.59765,4.234375 0.48895,0.28412 0.57202,0.671123 0.24609,1.158203 L 888.25,37.361328 c -0.2852,0.405795 -0.63163,0.465735 -1.03906,0.181641 -3.46316,-2.070047 -7.23036,-2.840147 -11.30469,-2.3125 -3.87059,0.48708 -7.19235,2.170945 -9.96289,5.052734 -2.77055,2.881789 -4.35819,6.271478 -4.76563,10.167969 -0.48892,5.073587 0.97603,9.47684 4.39844,13.210937 3.42244,3.734148 7.64094,5.601563 12.65235,5.601563 3.25946,0 6.25262,-0.851948 8.98242,-2.556641 0.44817,-0.243603 0.81636,-0.16173 1.10156,0.244141 l 4.88867,7.183594 c 0.3259,0.446463 0.24478,0.811558 -0.24414,1.095703 -4.48174,2.841171 -9.39114,4.261719 -14.72851,4.261719 -7.78193,0 -14.38388,-2.801135 -19.80274,-8.402344 -5.41881,-5.641777 -7.94479,-12.379291 -7.57812,-20.212891 0.2852,-6.818872 2.85274,-12.724394 7.70117,-17.716797 4.84845,-4.992378 10.67441,-7.751649 17.47851,-8.279297 0.76394,-0.06089 1.52088,-0.09316 2.26954,-0.0957 z m -326.66602,0.0332 v 0.002 c 7.29303,0.04059 13.50504,2.718067 18.63867,8.035157 5.13366,5.276497 7.70117,11.569047 7.70117,18.875 v 3.46875 c 0,0.48708 -0.2435,0.752402 -0.73242,0.792969 l -40.33594,3.46875 c 1.3853,2.922346 3.46191,5.276597 6.23243,7.0625 2.81126,1.785893 5.88756,2.679687 9.22851,2.679687 2.93349,0 5.6851,-0.690306 8.25195,-2.070313 2.60755,-1.420589 4.68418,-3.347877 6.23243,-5.783203 0.2852,-0.446488 0.65145,-0.548089 1.09961,-0.304687 l 7.51757,4.382812 c 0.48905,0.243528 0.59185,0.608648 0.30664,1.095704 -2.48534,4.018258 -5.8269,7.184497 -10.02343,9.498046 -4.1558,2.313525 -8.6178,3.470701 -13.38477,3.470704 -7.53749,0 -13.99495,-2.679453 -19.37305,-8.03711 -5.37809,-5.31709 -8.0664,-11.749348 -8.0664,-19.298828 0,-7.711824 2.58734,-14.205924 7.76172,-19.482422 5.17437,-5.276498 11.48931,-7.896036 18.94531,-7.855469 z m 101.20508,0 v 0.002 c 7.29305,0.04059 13.50699,2.718067 18.64062,8.035157 5.13363,5.276497 7.70117,11.569047 7.70117,18.875 v 3.46875 c 0,0.48708 -0.24545,0.752402 -0.73437,0.792969 l -40.33594,3.46875 c 1.38525,2.922348 3.46383,5.276597 6.23438,7.0625 2.81129,1.785895 5.88759,2.679687 9.22851,2.679687 2.93352,0 5.6832,-0.690306 8.25,-2.070313 2.60757,-1.420591 4.68613,-3.347877 6.23438,-5.783203 0.2852,-0.446488 0.65143,-0.548089 1.09961,-0.304687 l 7.51758,4.382812 c 0.48869,0.243528 0.58986,0.608648 0.30468,1.095704 -2.48531,4.01826 -5.82492,7.184497 -10.02148,9.498046 -4.15582,2.313525 -8.61783,3.470701 -13.38477,3.470704 -7.53748,0 -13.99495,-2.679453 -19.37304,-8.03711 -5.3781,-5.31709 -8.06836,-11.749348 -8.06836,-19.298828 0,-7.711824 2.58741,-14.205924 7.76171,-19.482422 5.17438,-5.276498 11.48932,-7.896036 18.94532,-7.855469 z m -162.8086,10.228516 c -4.64473,0 -8.63759,1.624001 -11.97851,4.871094 -3.3408,3.247067 -5.05313,7.205355 -5.13477,11.873047 v 0.730468 c 0.0815,4.6271 1.79384,8.563454 5.13477,11.810547 3.34092,3.247068 7.33378,4.871094 11.97851,4.871094 4.72623,0 8.78044,-1.663946 12.16211,-4.992187 3.34093,-3.328278 5.01172,-7.34643 5.01172,-12.054688 0,-4.708258 -1.67079,-8.748318 -5.01172,-12.117188 -3.38167,-3.328241 -7.43588,-4.992187 -12.16211,-4.992187 z m 61.41993,0 c -4.11505,0 -7.66053,1.340678 -10.63477,4.019531 -2.97426,2.638262 -4.76578,6.047905 -5.37695,10.228516 l 31.65625,-2.740234 c -0.89633,-3.490596 -2.74926,-6.271775 -5.56055,-8.341797 -2.81126,-2.110615 -6.17263,-3.166016 -10.08398,-3.166016 z m 101.20703,0 c -4.1151,0 -7.66053,1.340678 -10.63477,4.019531 -2.97423,2.638262 -4.76776,6.047905 -5.37891,10.228516 l 31.65821,-2.740234 c -0.89635,-3.490596 -2.75121,-6.271775 -5.5625,-8.341797 -2.81129,-2.110615 -6.17073,-3.166016 -10.08203,-3.166016 z m 375,19.847656 c -7.3745,0 -12.3453,1.137224 -14.9121,3.410157 -1.1001,0.974134 -1.6504,2.31286 -1.6504,4.017578 0,2.191773 0.4276,3.775864 1.2832,4.75 1.263,1.420598 3.6267,2.130859 7.0898,2.130859 1.1816,0 2.3417,-0.141662 3.4825,-0.425781 1.5075,-0.405871 2.8734,-1.036288 4.0957,-1.888672 3.2594,-2.354117 5.2153,-6.290497 5.8672,-11.810547 -1.8335,-0.121701 -3.5854,-0.183594 -5.2559,-0.183594 z"
       style="opacity:1;fill:#000000;fill-opacity:1;stroke:none;stroke-width:0.48130578;stroke-miterlimit:4;stroke-dasharray:none;stroke-opacity:1" />
  </g>
</svg>
